<?xml version="1.0" standalone="no"?>
<!DOCTYPE svg PUBLIC "-//W3C//DTD SVG 20010904//EN"
 "http://www.w3.org/TR/2001/REC-SVG-20010904/DTD/svg10.dtd">
<svg version="1.0" xmlns="http://www.w3.org/2000/svg"
 width="360.000000pt" height="360.000000pt" viewBox="0 0 360.000000 360.000000"
 preserveAspectRatio="xMidYMid meet">
<metadata>
Created by potrace 1.14, written by Peter Selinger 2001-2017
</metadata>
<g transform="translate(0.000000,360.000000) scale(0.100000,-0.100000)"
fill="#000000" stroke="none">
<path d="M1014 2703 c4 -6 -3 -14 -14 -18 -16 -5 -18 -10 -10 -26 6 -10 8 -19
4 -19 -3 0 0 -8 7 -17 8 -9 9 -14 3 -10 -8 5 -11 -22 -10 -93 1 -61 -3 -100
-9 -100 -5 0 -3 -5 5 -10 11 -7 11 -10 2 -10 -10 0 -10 -5 -1 -21 8 -16 8 -20
-1 -14 -9 6 -9 2 -1 -14 9 -16 9 -21 0 -21 -9 0 -9 -3 0 -14 9 -11 9 -15 -1
-19 -8 -3 -8 -6 -2 -6 8 -1 9 -14 4 -40 -4 -22 -4 -45 1 -52 10 -16 1 -31 -13
-23 -7 4 -8 2 -4 -5 4 -6 11 -9 16 -6 5 3 5 -8 0 -25 -6 -21 -5 -30 3 -30 9 0
9 -2 0 -8 -7 -5 -9 -13 -3 -22 6 -9 3 -18 -8 -27 -13 -10 -13 -12 -2 -8 11 4
15 -3 15 -25 0 -16 -4 -30 -10 -30 -5 0 -3 -5 5 -10 12 -8 12 -10 1 -10 -11 0
-11 -3 -1 -15 11 -13 10 -14 -6 -9 -18 6 -17 5 1 -9 17 -14 18 -18 5 -27 -13
-8 -13 -10 -1 -10 11 0 10 -4 -5 -16 -10 -8 -13 -13 -6 -9 6 3 12 0 13 -7 0
-7 2 -25 3 -40 1 -16 -2 -28 -7 -28 -4 0 -5 -5 -2 -11 11 -16 12 -69 2 -69 -4
0 -5 -5 -2 -11 10 -16 11 -99 1 -99 -5 0 -3 -7 4 -15 10 -12 10 -15 -1 -15
-11 0 -11 -2 1 -10 13 -9 13 -10 0 -10 -13 0 -13 -1 0 -10 13 -9 13 -10 0 -10
-9 0 -11 -3 -5 -8 6 -4 10 -26 10 -50 0 -23 -4 -42 -10 -42 -5 0 -3 -5 5 -10
13 -9 13 -10 0 -10 -13 0 -13 -1 0 -10 13 -9 13 -10 0 -10 -13 0 -13 -1 0 -10
11 -7 11 -10 2 -10 -10 0 -10 -5 -2 -20 8 -15 8 -20 -2 -20 -8 0 -9 -3 -3 -8
6 -4 10 -23 10 -42 0 -19 -4 -38 -10 -42 -7 -5 -7 -8 0 -8 6 0 10 -22 10 -49
0 -27 -3 -47 -7 -44 -13 7 -9 -12 4 -25 8 -8 8 -12 1 -12 -13 0 -12 -32 2 -42
6 -5 4 -8 -5 -8 -13 0 -13 -1 0 -10 13 -9 13 -10 0 -10 -13 0 -13 -1 0 -10 12
-8 12 -10 1 -10 -11 0 -11 -3 -1 -15 7 -8 8 -15 3 -15 -10 0 -9 -47 1 -57 3
-3 21 -7 41 -8 26 -1 35 3 36 14 0 11 2 12 6 3 4 -10 8 -10 19 -1 11 9 14 9
14 -1 0 -10 3 -10 15 0 9 7 18 10 21 7 3 -3 25 0 49 8 33 9 45 10 49 1 3 -7 5
-6 5 3 1 11 4 11 18 0 9 -8 14 -9 10 -3 -4 7 2 11 18 11 14 1 22 -4 18 -10 -4
-6 -1 -7 6 -3 7 5 10 15 6 23 -5 14 -3 14 11 2 16 -13 17 -11 12 14 -3 16 -1
27 6 27 6 0 5 4 -3 9 -11 7 -11 9 0 14 11 4 11 6 1 6 -10 1 -10 6 -1 22 6 12
7 19 1 15 -6 -3 -9 5 -8 19 0 14 5 25 10 25 6 0 5 5 -2 12 -14 14 -16 32 -4
24 5 -3 7 5 6 17 -1 12 -3 22 -4 22 -1 0 -2 21 -3 47 -2 27 2 48 8 48 5 0 4 4
-3 9 -8 4 -14 12 -14 16 0 4 6 12 14 16 10 7 10 9 1 9 -7 0 -13 5 -13 11 0 5
5 7 12 3 7 -4 8 -3 4 5 -10 16 -13 151 -4 145 4 -3 5 5 0 18 -12 40 -8 73 11
76 12 3 15 -1 10 -14 -4 -12 -3 -15 5 -10 16 10 15 -6 0 -23 -7 -8 -8 -11 -3
-8 6 3 17 -3 24 -15 7 -11 8 -17 2 -13 -16 9 -13 -4 5 -22 8 -9 13 -22 10 -29
-3 -8 -1 -14 4 -14 6 0 10 -8 10 -18 0 -10 6 -24 13 -31 10 -11 9 -12 -2 -6
-9 5 -8 0 3 -17 9 -14 13 -28 9 -31 -3 -4 -1 -7 5 -7 7 0 12 -11 12 -25 0 -14
6 -25 13 -25 9 0 9 -2 -1 -9 -11 -7 -11 -9 2 -14 9 -4 13 -13 10 -22 -4 -9 1
-21 11 -29 14 -10 15 -15 5 -21 -10 -6 -9 -9 1 -16 8 -4 15 -13 15 -19 1 -5 2
-11 4 -12 1 -2 3 -11 5 -20 2 -9 10 -31 19 -48 8 -17 12 -38 9 -46 -3 -9 1
-14 12 -14 14 0 15 -3 5 -15 -7 -8 -9 -15 -4 -16 16 -1 39 -7 57 -14 11 -5 17
-2 17 6 0 11 3 11 10 -1 5 -8 10 -10 10 -5 0 6 22 10 49 10 31 0 47 -3 44 -10
-3 -5 0 -4 8 3 15 14 33 17 25 4 -3 -5 1 -9 9 -9 8 0 12 4 9 9 -5 8 12 13 31
8 6 -2 19 -4 30 -6 11 -1 20 -3 20 -4 0 -1 10 -3 22 -4 12 -1 20 1 17 5 -2 4
0 10 6 14 5 3 10 2 10 -3 0 -14 65 -8 66 6 1 6 2 17 3 23 0 5 6 7 13 3 7 -4 8
-3 4 5 -4 6 -3 17 2 24 5 7 8 22 7 34 -1 12 2 20 7 17 4 -3 8 1 9 8 2 33 10
63 21 69 6 4 7 12 4 18 -4 6 -2 11 5 11 8 0 7 5 -2 17 -8 9 -9 14 -2 10 13 -8
28 27 18 43 -4 6 -1 9 7 8 8 -2 12 5 10 20 -2 13 3 25 12 28 9 3 16 10 16 16
0 5 -4 7 -9 4 -5 -4 -4 5 2 19 7 14 16 25 21 25 5 0 3 7 -4 16 -11 12 -11 15
1 12 8 -2 13 4 11 14 -1 9 2 19 8 23 5 3 10 15 10 26 0 10 6 19 13 19 8 0 7 4
-3 10 -8 5 -10 10 -4 10 7 0 15 15 18 34 6 30 36 60 36 36 0 -6 -6 -10 -12
-10 -7 0 -5 -5 5 -11 9 -6 15 -15 11 -20 -7 -12 -7 -88 -1 -131 2 -16 1 -28
-3 -28 -4 0 -5 -11 -2 -25 2 -15 0 -25 -7 -25 -7 0 -9 -5 -6 -10 4 -6 10 -8
14 -6 4 3 5 -11 3 -30 -2 -19 -9 -34 -15 -34 -6 0 -2 -7 9 -15 10 -8 14 -15 8
-15 -6 0 -9 -15 -8 -35 2 -25 0 -34 -9 -30 -7 4 -3 -1 7 -9 13 -10 15 -16 7
-16 -10 0 -11 -3 -3 -13 8 -9 7 -21 -3 -40 -8 -15 -10 -25 -4 -21 6 3 8 -5 6
-23 -2 -15 0 -36 5 -45 7 -14 5 -16 -8 -11 -14 5 -14 3 -3 -15 7 -12 23 -22
34 -22 11 0 35 -1 52 -1 22 -1 30 -5 26 -13 -4 -6 1 -5 10 3 14 11 17 11 17 0
0 -9 3 -10 8 -4 10 15 35 18 26 4 -5 -8 -2 -10 8 -6 9 3 21 0 28 -6 10 -9 11
-9 6 3 -4 8 -1 7 7 -3 11 -14 16 -15 20 -5 4 10 6 10 6 -1 1 -11 4 -11 16 -1
12 10 16 9 21 -5 5 -13 9 -14 15 -3 6 9 9 9 9 1 0 -7 13 -11 34 -10 23 1 32 6
28 15 -4 11 -6 11 -13 0 -6 -9 -9 -9 -9 -1 0 6 7 18 15 27 8 8 12 17 8 19 -5
3 -7 43 -7 89 1 49 -3 89 -10 97 -8 11 -8 13 1 8 15 -9 14 32 -1 52 -7 10 -7
13 -1 9 7 -4 11 11 12 42 0 31 -3 47 -10 43 -6 -4 -7 -1 -1 8 13 22 14 43 1
51 -9 6 -9 8 0 8 7 0 10 7 6 17 -4 10 -2 14 4 10 15 -9 4 35 -11 45 -7 5 -7 8
2 8 7 0 10 5 7 10 -3 6 -1 10 6 10 7 0 4 7 -7 16 -10 8 -13 13 -6 9 7 -4 12 0
12 9 0 8 -6 17 -12 19 -10 4 -10 6 -1 6 7 1 10 8 6 18 -4 10 -2 14 4 10 15 -9
4 35 -11 45 -8 6 -8 8 0 8 14 0 14 62 -1 72 -7 5 -7 8 1 8 13 0 13 139 0 159
-6 9 -5 12 2 7 7 -4 9 5 8 26 -2 18 2 39 8 47 8 11 8 13 -1 7 -7 -4 -13 -2
-13 3 0 6 6 11 13 12 6 0 3 4 -8 9 -11 5 -14 9 -7 9 15 1 13 42 -3 53 -6 5 -5
8 3 8 9 0 11 7 7 19 -3 11 -1 22 5 26 6 3 7 13 2 23 -4 9 -7 31 -6 47 1 17 -4
36 -10 44 -9 12 -8 13 3 7 9 -6 12 -5 9 5 -3 8 -1 22 3 31 7 12 4 20 -8 27
-17 10 -17 10 0 11 12 0 16 4 10 13 -10 16 -11 86 -1 114 4 12 4 24 0 27 -5 3
-7 20 -6 38 1 18 -3 39 -9 47 -9 12 -9 13 1 7 9 -6 11 -1 8 18 -3 16 0 26 7
26 7 0 4 5 -7 11 -15 9 -16 13 -5 20 12 7 12 9 0 9 -11 0 -11 3 0 17 12 15 12
16 -1 8 -12 -6 -13 -5 -2 6 6 7 12 18 12 25 0 15 -64 23 -86 11 -10 -6 -15 -6
-11 0 6 10 -64 10 -81 0 -5 -4 -12 -3 -16 1 -11 10 -30 9 -38 -3 -5 -6 -8 -6
-8 0 0 11 -72 11 -91 0 -8 -5 -10 -4 -5 3 11 19 -5 14 -21 -5 -8 -10 -11 -12
-7 -4 4 9 3 12 -4 7 -6 -4 -9 -13 -5 -21 3 -8 0 -15 -6 -15 -6 0 -11 -5 -11
-11 0 -5 6 -7 13 -4 6 4 3 -1 -7 -9 -12 -10 -15 -16 -7 -16 7 0 3 -9 -10 -20
-13 -10 -20 -19 -15 -20 5 0 3 -6 -3 -14 -8 -10 -9 -16 -1 -21 7 -4 5 -11 -4
-21 -9 -8 -13 -21 -10 -29 4 -8 1 -15 -6 -15 -6 0 -8 -4 -5 -10 3 -5 1 -10 -5
-10 -7 0 -10 -7 -6 -15 3 -8 -2 -21 -10 -30 -12 -11 -12 -15 -2 -15 10 -1 9
-4 -2 -13 -8 -7 -16 -23 -18 -37 -1 -13 -8 -28 -15 -32 -9 -6 -8 -8 3 -8 9 0
11 -3 5 -8 -17 -12 -41 -47 -27 -38 18 11 15 -4 -5 -27 -10 -11 -12 -17 -6
-13 9 5 11 2 7 -8 -3 -9 -10 -14 -15 -11 -4 3 -6 -4 -4 -15 2 -11 0 -20 -5
-20 -5 0 -7 -7 -4 -15 4 -8 1 -15 -6 -15 -6 0 -8 -4 -5 -10 3 -5 1 -10 -6 -10
-9 0 -9 -3 0 -14 10 -11 8 -17 -9 -29 -16 -11 -18 -16 -8 -20 10 -5 9 -9 -5
-17 -9 -6 -15 -16 -11 -21 3 -6 -2 -17 -12 -25 -11 -9 -13 -13 -6 -9 6 3 12 1
12 -4 0 -6 -4 -11 -10 -11 -5 0 -6 -7 -3 -17 4 -11 3 -14 -5 -9 -8 5 -10 2 -6
-8 3 -9 1 -16 -6 -16 -6 0 -8 -5 -5 -10 4 -6 2 -17 -4 -24 -7 -8 -10 -20 -9
-27 2 -8 -2 -13 -8 -12 -6 1 -11 -4 -11 -12 0 -8 3 -12 7 -10 4 3 0 -11 -8
-30 -9 -19 -20 -31 -25 -28 -5 3 -4 -4 2 -16 8 -14 8 -21 1 -21 -5 0 -9 -6 -7
-12 1 -7 -4 -12 -11 -10 -10 2 -10 -2 -3 -17 8 -14 7 -22 -3 -30 -11 -10 -22
-40 -26 -79 -1 -4 -9 -16 -18 -26 -13 -15 -13 -17 -2 -11 13 8 13 6 2 -8 -8
-9 -10 -22 -6 -28 5 -8 3 -9 -5 -5 -8 6 -11 2 -9 -10 2 -10 -2 -19 -9 -19 -6
0 -15 -4 -20 -9 -5 -5 -3 -6 5 -2 13 8 17 -10 3 -18 -11 -7 -34 46 -35 84 -1
15 -4 26 -7 24 -9 -5 -20 26 -13 37 3 5 0 9 -6 9 -6 0 -9 4 -6 9 3 5 -1 12
-10 15 -14 5 -14 9 -3 23 12 14 12 16 0 8 -11 -6 -13 -3 -9 13 3 12 3 21 -1
20 -18 -2 -22 4 -11 17 10 12 10 15 0 15 -7 0 -10 7 -6 15 3 9 -1 18 -9 21 -8
4 -15 17 -15 31 0 17 -4 22 -12 17 -9 -5 -9 -2 1 9 9 11 10 17 2 17 -6 0 -11
7 -11 15 0 8 -6 15 -12 15 -9 0 -8 4 2 10 11 7 11 10 2 10 -7 0 -10 5 -7 11 4
5 1 18 -7 27 -8 9 -14 26 -14 37 1 11 -7 27 -16 36 -10 9 -15 18 -12 21 3 3
-2 22 -10 41 -11 27 -11 37 -3 41 7 2 4 5 -6 5 -11 1 -17 7 -14 14 2 6 -3 21
-12 31 -13 16 -13 18 -1 11 12 -7 13 -6 3 6 -6 8 -13 25 -15 39 -2 14 -8 24
-14 23 -6 -1 -10 11 -9 28 1 16 -3 29 -8 29 -6 0 -7 3 -4 7 4 3 2 12 -4 20 -6
7 -8 13 -3 13 4 0 -1 7 -12 16 -10 8 -13 13 -6 9 6 -3 12 -1 12 4 0 6 -4 11
-10 11 -5 0 -10 5 -10 11 0 5 6 7 13 3 6 -4 4 2 -7 14 -10 12 -20 30 -21 39
-4 33 -17 63 -27 63 -6 0 -5 7 2 15 9 10 9 15 1 15 -6 0 -11 7 -11 15 0 8 -5
15 -11 15 -8 0 -8 4 -1 13 11 14 -10 41 -24 29 -5 -4 -2 1 5 11 9 11 10 17 2
17 -6 0 -11 11 -11 25 0 13 -8 29 -17 34 -10 6 -14 11 -9 11 5 0 3 7 -4 15 -7
8 -17 11 -24 7 -17 -11 -116 -10 -116 2 0 5 -7 1 -15 -10 -8 -11 -14 -14 -15
-6 0 10 -5 10 -21 1 -17 -9 -20 -8 -14 2 6 9 3 10 -10 6 -9 -4 -23 -3 -30 3
-10 8 -15 8 -21 -1 -5 -8 -3 -9 6 -4 9 5 11 4 6 -3 -5 -9 -13 -9 -27 -2 -14 8
-19 7 -19 -2 0 -6 -7 -3 -16 8 -8 10 -13 14 -10 7z m341 -1067 c12 -12 12 -15
-2 -20 -9 -4 -18 -4 -21 -1 -3 3 0 5 8 5 10 0 10 3 0 15 -16 19 -3 20 15 1z
m899 6 c3 -5 -1 -9 -9 -9 -8 0 -12 4 -9 9 3 4 7 8 9 8 2 0 6 -4 9 -8z"/>
</g>
</svg>
